<svg id="Layer_1" data-name="Layer 1" xmlns="http://www.w3.org/2000/svg" viewBox="0 0 247.09 60"><defs><style>.cls-1{fill:#0db14b;}.cls-2{fill:#005dac;}.cls-3{fill:#f7941d;}.cls-4{fill:#e31f26;}</style></defs><path class="cls-1" d="M51.83,56.6c-3.44-10.8-.94-31.2,5.48-47.76,0,0,3.23,31.65-5.48,47.76"/><path class="cls-2" d="M2.9,12.21c4.38-19.4,3.91,27.71,7.72,40.63,0,0-11.93-21.93-7.72-40.63"/><path class="cls-3" d="M48.51,57.3c6,4-28.86-.63-38.57-3.13,0,0,31.85-1.33,38.57,3.13"/><path class="cls-4" d="M54.1,4.72C57.79,8.9,18.47,7.1,3.25,4.36c0,0,44-7.46,50.85.36"/><path class="cls-2" d="M116.38,25c4.62-.5,5.52-2.51,5.52-4.91V16.76c0-4-2.18-5.58-7-5.58H88.21V40h24.71c6.09,0,9.17-1.78,9.17-5.63V30.66C122.09,27.36,120.1,25.41,116.38,25ZM93.73,15h19.12c2.38,0,3.4.45,3.4,2.51v2.91c0,2-1,2.56-3.4,2.56H93.73Zm22.78,17.58c0,2.62-.9,3.4-3.66,3.4H93.73V26.75h19.12c2.7,0,3.66.78,3.66,3.46Z"/><path class="cls-2" d="M176.57,33.17V18c0-5.3-1.73-6.81-7.7-6.81H146c-5.91,0-7.77,1.45-7.77,6.81V33.17c0,5.35,1.86,6.8,7.77,6.8h22.91C174.84,40,176.57,38.47,176.57,33.17ZM171.11,36h-27.4V15.09h27.4Z"/><polygon class="cls-2" points="210.05 24.69 224.62 11.18 217.75 11.18 206.84 22.06 195.23 11.18 187.27 11.18 203.57 25.13 187.53 39.97 194.52 39.97 206.72 27.7 219.87 39.97 227.83 39.97 210.05 24.69"/><path class="cls-2" d="M236.25,12.83h-2.91V11.71h3.27v.58l.67-.16V12c0-.69-.32-.88-1.09-.88h-2.47c-.82,0-1.07.2-1.07.95v.35c0,.75.25,1,1.07,1h2.91v1.21h-3.45V14l-.71.15v.11c0,.74.25.95,1.08.95h2.7c.84,0,1.08-.21,1.08-.95v-.46C237.33,13.06,237.1,12.83,236.25,12.83Z"/><path class="cls-2" d="M244.29,11.16l-2.1,2.62-2.25-2.62h-.63v4H240V12.47a3.29,3.29,0,0,0,0-.59,1.74,1.74,0,0,0,.31.5l1.84,2.17h.2l1.77-2.24a2.91,2.91,0,0,0,.28-.43c0,.29,0,.5,0,.59v2.72H245v-4Z"/><path class="cls-2" d="M88.21,51V45.52h6.53v.94h-5v1.23h2.94v.94H89.7V50h5.1v1Z"/><path class="cls-2" d="M106.27,51l3-2.83-3.08-2.68h2l2,1.88,1.93-1.88h1.71l-2.78,2.54,3.44,3h-2l-2.33-2.13L108,51Z"/><path class="cls-2" d="M131.24,46.51h-4V50h4V48.81l1.49.27v.65a1.28,1.28,0,0,1-.33,1,2.08,2.08,0,0,1-1.25.27h-3.81a2,2,0,0,1-1.25-.27,1.28,1.28,0,0,1-.33-1v-2.9a1.3,1.3,0,0,1,.33-1,2,2,0,0,1,1.25-.28h3.81a2.07,2.07,0,0,1,1.25.28,1.3,1.3,0,0,1,.33,1v.52l-1.49.2Z"/><path class="cls-2" d="M144.31,51V45.52h1.48v2.14h4.63V45.52h1.5V51h-1.5V48.66h-4.63V51Z"/><path class="cls-2" d="M162.63,51l3.61-5.51h1.43L171.33,51h-1.66l-.77-1.2h-4l-.75,1.2Zm2.86-2.2h2.79l-1.37-2.24Z"/><path class="cls-2" d="M182.1,51V45.52h1l4.49,3.25.4.31a3,3,0,0,1,.32.29c0-.31,0-.53-.05-.66s0-.22,0-.29v-2.9h1.33V51h-1l-4.68-3.4-.3-.23-.23-.22c0,.17,0,.33,0,.48s0,.29,0,.4v3Z"/><path class="cls-2" d="M207.06,46.51h-4.63V50h4.63V48.77h-2.43v-.94h3.87v1.9a1.32,1.32,0,0,1-.32,1,2.09,2.09,0,0,1-1.26.27h-4.4a2,2,0,0,1-1.25-.27,1.28,1.28,0,0,1-.33-1v-2.9a1.3,1.3,0,0,1,.33-1,2,2,0,0,1,1.25-.28h4.4a2.08,2.08,0,0,1,1.25.27,1.23,1.23,0,0,1,.33,1v.13l-1.44.22Z"/><path class="cls-2" d="M220.3,51V45.52h6.53v.94h-5.05v1.23h2.94v.94h-2.94V50h5.11v1Z"/></svg>